<svg width="47" height="47" viewBox="0 0 47 47" fill="none" xmlns="http://www.w3.org/2000/svg">
<circle cx="23.5" cy="23.5" r="23.5" transform="matrix(-1 0 0 1 47 0)" fill="white"/>
<path d="M22.17 31C22.3194 31.0005 22.467 30.9675 22.602 30.9035C22.737 30.8395 22.8559 30.746 22.95 30.63L27.78 24.63C27.9271 24.4511 28.0075 24.2266 28.0075 23.995C28.0075 23.7634 27.9271 23.5389 27.78 23.36L22.78 17.36C22.6103 17.1558 22.3664 17.0274 22.1019 17.003C21.8375 16.9786 21.5742 17.0603 21.37 17.23C21.1658 17.3997 21.0374 17.6437 21.013 17.9081C20.9886 18.1725 21.0703 18.4358 21.24 18.64L25.71 24L21.39 29.36C21.2677 29.5068 21.1901 29.6855 21.1662 29.8751C21.1423 30.0646 21.1732 30.257 21.2553 30.4296C21.3373 30.6021 21.4671 30.7475 21.6292 30.8486C21.7913 30.9497 21.979 31.0022 22.17 31Z" fill="black"/>
</svg>
