<svg width="47" height="47" viewBox="0 0 47 47" fill="none" xmlns="http://www.w3.org/2000/svg">
<circle cx="23.5" cy="23.5" r="23.5" fill="white"/>
<path d="M24.83 31C24.6806 31.0005 24.533 30.9675 24.3981 30.9035C24.2631 30.8395 24.1442 30.746 24.05 30.63L19.22 24.63C19.073 24.4511 18.9926 24.2266 18.9926 23.995C18.9926 23.7634 19.073 23.5389 19.22 23.36L24.22 17.36C24.3898 17.1558 24.6337 17.0274 24.8981 17.003C25.1625 16.9786 25.4258 17.0603 25.63 17.23C25.8343 17.3997 25.9627 17.6437 25.9871 17.9081C26.0114 18.1725 25.9298 18.4358 25.76 18.64L21.29 24L25.61 29.36C25.7323 29.5068 25.81 29.6855 25.8339 29.8751C25.8578 30.0646 25.8268 30.257 25.7448 30.4296C25.6627 30.6021 25.533 30.7475 25.3709 30.8486C25.2088 30.9497 25.0211 31.0022 24.83 31Z" fill="black"/>
</svg>
